# xmcd
#
# Track frame offsets: 
#        150
#        15385
#        32135
#        49214
#        80665
#        97226
#        114838
#        165177
#        179981
#        203069
#
# Disc length: 2956 seconds
#
# Revision: 0
# Processed by: cddbd v1.5.2PL0 Copyright (c) Steve Scherf et al.
# Submitted via: ExactAudioCopy v0.99pb3
#
DISCID=7e0b8a0a
DTITLE=Austin Walkin' Cane - Help Yourself
DYEAR=1997
DGENRE=Blues
TTITLE0=Bellyleak Boogie
TTITLE1=Leave The Past Behind
TTITLE2=Linin' Track (Tie-Shuffling Chant)
TTITLE3=Drinkin' Tanqueray
TTITLE4=Got My Mind Right, Boss
TTITLE5=Sweet Jelly Rollin'
TTITLE6=Mississippi Jim (Turn The Trick Blues)
TTITLE7=Forty-Below In Chicago
TTITLE8=Nobody Knows You When You're Down And Out
TTITLE9=Sidesteppin'
EXTD=
EXTT0=
EXTT1=
EXTT2=
EXTT3=
EXTT4=
EXTT5=
EXTT6=
EXTT7=
EXTT8=
EXTT9=
PLAYORDER=
